<?xml version="1.0" standalone="no"?>
<!DOCTYPE svg PUBLIC "-//W3C//DTD SVG 20010904//EN"
 "http://www.w3.org/TR/2001/REC-SVG-20010904/DTD/svg10.dtd">
<svg version="1.0" xmlns="http://www.w3.org/2000/svg"
 width="700.000000pt" height="700.000000pt" viewBox="0 0 700.000000 700.000000"
 preserveAspectRatio="xMidYMid meet">
<metadata>
Created by potrace 1.14, written by Peter Selinger 2001-2017
</metadata>
<g transform="translate(0.000000,700.000000) scale(0.100000,-0.100000)"
fill="#000000" stroke="none">
<path d="M4110 5788 c-32 -12 -36 -18 -46 -68 -8 -35 -11 -133 -8 -270 3 -224
6 -257 25 -327 10 -38 16 -44 58 -58 26 -8 96 -17 155 -20 125 -5 202 -24 246
-62 42 -35 85 -131 95 -213 16 -124 22 -208 30 -415 6 -145 16 -298 20 -305 2
-3 6 -30 10 -60 11 -87 49 -204 86 -265 44 -74 104 -133 206 -202 46 -31 83
-59 83 -62 -1 -3 -37 -35 -81 -71 -81 -65 -177 -158 -203 -195 -79 -114 -108
-252 -120 -575 -9 -228 -19 -375 -31 -455 -9 -57 -38 -131 -63 -159 -36 -40
-126 -65 -282 -80 -63 -6 -137 -24 -161 -39 -23 -14 -58 -66 -65 -99 -8 -33
-5 -388 5 -582 1 -18 13 -18 319 -13 329 6 354 8 487 33 90 17 126 28 213 66
40 18 144 92 167 120 73 88 115 174 152 308 36 133 48 244 68 605 18 335 49
477 124 555 32 34 157 102 244 133 9 4 17 12 18 19 3 45 4 855 1 864 -2 7 -38
27 -80 45 -151 65 -209 114 -250 210 -40 92 -51 175 -57 424 -10 388 -18 487
-45 612 -49 218 -163 359 -379 468 -89 45 -248 88 -401 110 -25 3 -72 10 -105
16 -102 17 -395 21 -435 7z"/>
<path d="M2518 5785 c-2 -1 -27 -5 -56 -9 -76 -9 -123 -16 -162 -26 -438 -107
-573 -279 -615 -780 -6 -72 -10 -147 -20 -353 -3 -76 -8 -145 -9 -155 -2 -9
-7 -48 -11 -85 -12 -121 -33 -197 -72 -254 -37 -54 -63 -74 -175 -131 -147
-74 -153 -96 -152 -527 1 -308 9 -352 76 -416 23 -21 45 -39 49 -39 15 0 130
-72 165 -102 35 -31 78 -104 96 -163 19 -62 36 -256 38 -435 1 -102 3 -205 5
-230 18 -259 48 -392 118 -525 61 -115 203 -233 337 -280 167 -59 448 -98 705
-98 155 0 199 15 232 81 16 32 18 63 18 247 0 228 -3 262 -30 318 -30 64 -101
93 -275 112 -271 31 -301 87 -325 600 -16 344 -18 380 -37 495 -11 74 -11 71
-27 128 -27 94 -87 171 -193 245 -38 26 -71 47 -74 47 -3 0 -19 9 -35 21 l-29
20 119 104 c119 104 170 157 188 198 59 128 69 203 88 652 16 364 46 484 135
534 40 22 134 46 220 55 85 10 110 15 170 39 90 36 99 67 106 377 6 280 -2
304 -106 326 -34 7 -455 15 -462 9z"/>
</g>
</svg>
